<svg xmlns="http://www.w3.org/2000/svg" viewBox="0 0 960 640" width="960" height="640"><path fill="#ddccb4" d="M0 0h960v640H0z"/><path fill="#eee4d4" d="m580 0 380 0v640H710Z"/><g stroke="#a7835d" opacity=".27"><path d="M0 0 960 0"/><path d="M70 0 960 56"/><path d="M140 0 960 112"/><path d="M210 0 960 168"/><path d="M280 0 960 224"/><path d="M350 0 960 280"/><path d="M420 0 960 336"/><path d="M490 0 960 392"/><path d="M560 0 960 448"/><path d="M630 0 960 504"/><path d="M700 0 960 560"/><path d="M770 0 960 616"/><path d="M840 0 960 672"/></g><ellipse cx="487" cy="524" rx="302" ry="47" fill="#52351c" opacity=".12"/><g transform="translate(0 0)"><path d="m236 300 26 212h27l12-194m390-49-21 230h-29l-2-212" fill="#785231"/><path d="m185 265 384-85 215 87-393 107Z" fill="#c39058"/><path d="m185 265 206 109v25L185 290Z" fill="#8c603a"/><path d="m391 374 393-107v27L391 399Z" fill="#aa7848"/><g stroke="#ad7748" stroke-width="2"><path d="m227 282 385-83m-331 110 385-87m-328 118 385-97"/></g><path d="m555 178 9-35h54l12 33" fill="#444b36"/><path d="m590 157-45-71 16-15 42 48 19-65 20 8-39 95" fill="#647453"/></g></svg>